<?xml version="1.0" standalone="no"?>
<!DOCTYPE svg PUBLIC "-//W3C//DTD SVG 20010904//EN"
 "http://www.w3.org/TR/2001/REC-SVG-20010904/DTD/svg10.dtd">
<svg version="1.0" xmlns="http://www.w3.org/2000/svg"
 width="800.000000pt" height="800.000000pt" viewBox="0 0 800.000000 800.000000"
 preserveAspectRatio="xMidYMid meet">
<metadata>
Created by potrace 1.11, written by Peter Selinger 2001-2013
</metadata>
<g transform="translate(0.000000,800.000000) scale(0.100000,-0.100000)"
fill="#000000" stroke="none">
<path d="M5100 7808 c0 -26 -23 -96 -42 -130 -37 -65 -129 -177 -201 -243 -45
-41 -85 -75 -88 -75 -4 0 -18 24 -33 54 -14 29 -38 65 -52 79 l-26 26 -25 -47
c-38 -71 -149 -222 -164 -222 -4 0 -9 18 -13 41 -8 51 -36 107 -69 137 l-25
24 -7 -22 c-24 -74 -242 -239 -490 -370 -55 -29 -116 -63 -137 -76 -21 -13
-41 -24 -45 -24 -3 0 -15 -7 -25 -17 -17 -15 -18 -15 -18 3 0 34 46 118 100
183 l53 63 -34 -7 c-151 -30 -317 -130 -443 -266 l-66 -71 0 64 c0 35 9 95 20
133 11 39 22 78 25 87 2 9 9 26 15 37 38 72 -136 -78 -196 -169 -67 -100 -107
-225 -113 -352 -1 -14 -12 -11 -73 20 -68 35 -76 37 -177 39 -107 1 -194 -17
-244 -52 -16 -11 -15 -13 15 -11 52 3 160 -34 224 -77 34 -24 32 -30 -20 -57
-54 -28 -135 -110 -160 -164 -31 -65 -38 -131 -21 -203 17 -73 27 -81 48 -36
25 58 74 111 122 133 57 26 60 25 35 -10 -99 -139 -94 -481 10 -706 33 -71 60
-155 90 -279 17 -66 30 -122 30 -126 0 -3 -17 -4 -37 -2 -172 15 -228 14 -260
-6 -47 -29 -63 -60 -64 -124 -2 -75 14 -109 64 -138 36 -20 57 -24 141 -26
l100 -2 15 -38 c59 -153 264 -285 380 -245 22 8 31 8 31 0 0 -18 67 -121 107
-164 78 -82 207 -160 333 -199 30 -9 60 -18 67 -20 9 -3 7 -13 -5 -37 -11 -23
-16 -59 -16 -118 -1 -100 24 -163 80 -208 35 -28 43 -42 23 -42 -6 0 -25 -7
-42 -15 -43 -19 -145 -56 -154 -56 -5 1 -9 21 -10 46 -4 90 -62 166 -146 189
-29 8 -68 17 -87 20 -19 3 -64 10 -100 16 -36 5 -74 12 -85 14 -11 2 -40 7
-65 10 -25 3 -54 8 -65 10 -11 2 -40 7 -65 10 -25 3 -54 8 -65 10 -18 3 -150
24 -200 32 -28 4 -91 14 -155 24 -30 5 -72 11 -93 14 -20 4 -52 8 -70 11 -246
38 -258 40 -327 50 -30 4 -62 9 -71 10 -51 10 -129 18 -164 19 -57 0 -89 -10
-123 -39 -28 -24 -34 -37 -47 -103 -2 -13 4 -67 15 -120 11 -54 21 -110 24
-127 4 -24 32 -156 52 -250 3 -17 9 -47 19 -105 2 -8 10 -49 19 -90 8 -41 18
-91 21 -110 3 -19 10 -51 15 -70 5 -19 11 -48 13 -65 3 -16 15 -82 28 -145 20
-104 26 -118 56 -147 32 -31 111 -62 195 -78 27 -5 39 -15 51 -40 21 -43 86
-87 134 -90 21 -2 41 -4 44 -4 4 -1 14 -21 23 -45 29 -76 97 -98 166 -54 46
30 130 33 130 5 0 -27 27 -74 52 -91 30 -21 61 -20 109 4 57 30 87 58 100 97
6 18 16 33 22 33 15 0 159 -30 166 -35 3 -1 22 -6 41 -9 19 -3 78 -18 130 -33
135 -39 180 -36 315 22 61 26 116 52 124 58 11 10 12 6 6 -23 -17 -81 -89
-282 -131 -367 -25 -50 -47 -100 -49 -111 -5 -30 29 -96 69 -129 32 -26 64
-41 201 -93 19 -7 21 -15 19 -106 -1 -103 -13 -310 -19 -341 -2 -10 -4 -24 -4
-30 -1 -8 -15 -13 -36 -13 -43 0 -48 -25 -10 -58 36 -32 32 -57 -13 -81 -16
-9 -21 -18 -16 -35 8 -33 -27 -45 -91 -31 -71 16 -119 1 -175 -55 -44 -44 -52
-54 -90 -117 l-19 -32 -105 6 c-67 3 -125 1 -158 -7 -183 -42 -337 -196 -340
-340 -1 -27 -4 -50 -8 -50 -4 0 -12 -16 -18 -36 -16 -54 4 -86 70 -112 57 -22
83 -30 120 -37 13 -3 37 -8 53 -11 81 -18 228 -20 315 -5 128 23 292 90 397
162 23 16 43 29 45 29 2 0 2 -17 0 -39 -3 -30 1 -43 18 -59 15 -14 23 -36 26
-73 7 -74 10 -79 40 -79 l26 0 -5 72 c-3 55 0 76 11 87 10 11 13 27 8 60 -3
25 -7 55 -8 66 -3 19 4 20 102 23 168 4 208 23 194 94 -7 38 -7 39 0 97 3 24
13 52 23 63 13 14 18 36 18 77 0 64 -24 104 -82 136 -30 17 -32 19 -27 68 3
28 8 55 10 59 3 5 -8 13 -24 19 -53 18 -46 56 16 88 32 17 28 40 -8 48 -27 5
-56 34 -46 44 3 2 7 85 11 184 4 99 8 192 9 208 1 25 4 27 46 28 25 0 54 2 65
4 11 2 37 6 59 10 55 8 121 40 144 70 23 29 35 31 55 10 16 -15 18 -63 20
-356 0 -91 -3 -171 -7 -177 -4 -7 -20 -12 -36 -12 -16 0 -31 -4 -34 -8 -7 -12
23 -52 39 -52 17 0 25 -12 31 -46 4 -21 -1 -27 -30 -39 -32 -13 -34 -17 -27
-47 13 -57 1 -158 -21 -185 -6 -7 -8 -13 -4 -13 4 0 0 -11 -9 -24 -18 -28 -27
-99 -16 -129 5 -12 4 -32 -2 -44 -15 -33 0 -72 31 -85 15 -6 56 -10 90 -10
l64 1 -7 -26 c-8 -34 -41 -80 -66 -93 -11 -6 -41 -13 -67 -16 -100 -10 -144
-22 -228 -60 -67 -29 -134 -93 -134 -126 0 -17 -12 -33 -39 -54 -54 -40 -63
-57 -45 -83 17 -24 36 -27 56 -8 54 51 90 76 103 71 27 -11 65 6 109 46 54 50
121 83 221 110 139 38 204 98 209 193 1 23 6 41 11 41 6 -1 28 -4 50 -7 44 -7
116 -22 280 -63 97 -23 131 -27 290 -28 199 -1 266 5 382 34 136 35 232 96
220 140 -3 8 -6 21 -8 28 -3 11 16 14 84 15 75 2 91 5 103 21 8 11 14 26 14
33 0 9 14 13 42 13 23 0 49 7 57 15 9 8 34 15 56 16 48 3 65 14 58 38 -4 14
-13 17 -53 13 -30 -2 -57 2 -72 10 -20 13 -114 16 -225 9 -29 -1 -53 -27 -53
-57 0 -42 -31 -30 -70 26 -39 58 -91 101 -166 137 -69 33 -82 37 -154 49 -88
15 -193 7 -282 -22 -33 -11 -85 -15 -175 -15 -151 1 -171 4 -240 37 -45 21
-53 29 -59 60 -4 24 -13 38 -25 41 -11 3 -19 11 -19 18 0 8 -2 20 -6 28 -3 8
6 28 20 45 34 39 34 61 1 57 -21 -2 -25 2 -26 24 -1 14 -3 46 -5 71 -3 44 -6
305 -5 385 l1 40 92 18 c104 20 170 53 198 99 23 38 19 61 -30 162 -95 198
-131 472 -78 583 12 24 5 195 -11 280 -14 72 -47 200 -65 251 l-16 43 52 24
52 24 40 -32 c104 -80 159 -134 189 -186 33 -55 34 -56 81 -57 134 -2 384 100
524 216 31 25 38 27 66 17 17 -6 76 -11 131 -11 87 -1 107 3 150 24 61 30 95
89 97 166 0 37 6 55 24 73 59 59 57 221 -3 221 -11 0 -13 5 -8 18 5 9 10 44
12 77 6 82 -15 115 -88 137 -76 24 -178 40 -204 34 -21 -5 -22 -3 -23 57 0
129 -69 204 -192 209 -63 2 -89 -4 -113 -26 -20 -18 -25 -31 -21 -53 2 -15 8
-50 13 -78 15 -86 13 -219 -4 -291 -9 -38 -19 -89 -22 -114 -3 -30 -21 -70
-54 -123 -27 -43 -49 -80 -49 -83 0 -6 -110 -154 -139 -186 -29 -33 -35 -34
-58 -9 -16 17 -133 115 -181 151 -19 14 -20 19 -8 70 24 103 22 108 -69 141
-272 102 -273 103 -232 118 53 20 95 103 102 201 2 23 -15 103 -30 143 -5 12
-2 17 8 17 9 0 62 24 119 52 238 122 372 331 392 611 3 35 11 56 29 75 136
148 136 421 -2 569 l-30 33 44 92 c70 152 96 254 99 386 1 68 3 76 36 115 133
157 204 292 224 427 l7 45 -52 -50 c-29 -27 -49 -42 -46 -32 87 248 93 519 15
669 l-22 43 -15 -52 c-9 -28 -19 -54 -22 -57 -3 -4 -12 13 -19 36 -17 55 -67
163 -96 208 -13 19 -33 62 -45 95 -28 77 -97 198 -146 254 -22 26 -58 53 -89
67 -29 13 -55 28 -59 33 -3 6 -15 16 -26 21 -16 9 -19 7 -19 -12z m-1175
-4425 c-3 -27 -10 -66 -15 -88 -5 -22 -12 -56 -15 -75 -3 -19 -13 -64 -22 -98
l-16 -64 -51 7 c-28 3 -73 8 -101 11 -77 9 -78 11 -76 100 1 43 4 80 5 81 1 2
29 -7 62 -18 l59 -21 25 33 c69 91 141 179 146 179 3 0 3 -21 -1 -47z m-211
-2348 c-4 -8 -18 -15 -33 -15 -28 0 -121 -53 -121 -69 0 -11 -49 -21 -55 -11
-5 8 38 50 76 74 23 14 84 31 126 35 7 1 10 -6 7 -14z"/>
</g>
</svg>
