<?xml version="1.0" standalone="no"?>
<!DOCTYPE svg PUBLIC "-//W3C//DTD SVG 20010904//EN"
 "http://www.w3.org/TR/2001/REC-SVG-20010904/DTD/svg10.dtd">
<svg version="1.0" xmlns="http://www.w3.org/2000/svg"
 width="467.000000pt" height="800.000000pt" viewBox="0 0 467.000000 800.000000"
 preserveAspectRatio="xMidYMid meet">

<g transform="translate(0.000000,800.000000) scale(0.100000,-0.100000)"
fill="#000000" stroke="none">
<path d="M3430 7800 c0 -32 -30 -100 -78 -175 -41 -65 -232 -265 -253 -265 -5
0 -16 17 -24 37 -17 40 -75 122 -87 123 -5 0 -8 -6 -8 -13 0 -19 -68 -123
-133 -203 l-52 -66 -6 45 c-8 52 -32 102 -67 139 l-25 27 -28 -43 c-15 -24
-56 -67 -91 -97 -77 -64 -252 -181 -333 -221 -33 -17 -107 -57 -163 -90 -57
-33 -106 -57 -109 -54 -16 16 48 134 112 205 43 47 36 50 -55 20 -144 -47
-271 -129 -378 -244 -34 -36 -64 -65 -68 -65 -17 0 5 161 33 243 16 48 27 87
24 87 -3 0 -32 -20 -63 -45 -70 -55 -137 -138 -177 -220 -32 -64 -71 -208 -71
-261 l0 -32 -72 36 c-61 30 -84 36 -156 40 -92 5 -169 -8 -241 -41 l-46 -21
65 -7 c69 -8 138 -33 195 -72 l35 -24 -58 -36 c-73 -45 -137 -114 -165 -175
-26 -59 -27 -169 -3 -227 l17 -40 30 55 c45 82 98 130 144 130 15 0 14 -4 -3
-32 -47 -79 -57 -134 -56 -308 1 -183 14 -247 88 -421 33 -80 113 -365 105
-374 -3 -2 -55 1 -117 7 -129 12 -173 4 -213 -38 -21 -23 -24 -35 -24 -106 0
-77 1 -81 32 -108 42 -38 97 -52 190 -49 l75 2 29 -60 c37 -77 115 -155 195
-194 56 -28 71 -31 132 -27 l69 3 29 -55 c38 -75 153 -188 239 -235 38 -22
110 -53 160 -70 l91 -31 -15 -35 c-8 -20 -14 -68 -15 -119 0 -102 25 -163 86
-213 l39 -31 -108 -43 c-59 -23 -111 -43 -115 -43 -5 0 -8 20 -8 45 0 82 -40
149 -113 186 -51 26 -1526 259 -1642 259 -112 0 -165 -48 -165 -150 0 -53 211
-1142 230 -1187 13 -32 104 -80 188 -99 66 -15 73 -19 88 -50 22 -45 87 -84
142 -84 40 0 42 -2 52 -39 12 -47 60 -91 98 -91 15 0 47 11 71 25 27 16 59 25
85 25 41 0 42 -1 54 -45 15 -55 60 -89 107 -79 51 10 121 64 143 110 l21 42
143 -34 c79 -19 184 -46 235 -60 113 -32 148 -27 306 46 l108 49 -6 -32 c-18
-81 -90 -282 -136 -374 -47 -96 -49 -105 -39 -142 18 -69 120 -141 246 -172
l47 -12 -8 -176 c-4 -97 -10 -205 -13 -241 -7 -63 -8 -65 -37 -68 -36 -4 -50
-16 -40 -32 6 -9 9 -9 15 -1 5 9 18 9 54 0 47 -12 199 -8 246 7 23 7 24 6 11
-9 -7 -9 -9 -17 -3 -17 11 0 37 28 31 34 -2 2 -20 8 -39 13 l-35 9 2 80 c2 43
5 145 9 225 l6 146 81 6 c112 8 183 31 225 73 25 25 40 32 56 28 22 -5 23 -11
29 -141 9 -172 9 -341 1 -382 -4 -21 -12 -31 -24 -31 -44 0 -69 -31 -36 -43
11 -4 13 -1 9 10 -5 13 -2 15 13 9 10 -4 55 -9 99 -11 44 -1 54 0 23 2 l-57 4
-3 282 c-2 155 -3 282 -3 283 0 0 36 -1 80 -4 l80 -4 0 -279 c0 -153 3 -279 7
-279 4 0 19 5 33 10 23 9 26 8 22 -4 -4 -10 -1 -13 9 -9 24 9 16 31 -13 35
l-28 3 -9 216 c-5 119 -6 237 -2 261 l7 46 50 6 c132 18 228 68 249 131 11 33
9 41 -24 105 -91 175 -129 366 -107 536 26 193 12 342 -49 555 -16 57 -27 105
-24 108 3 3 26 13 51 23 l47 18 55 -42 c92 -69 148 -127 181 -184 33 -59 32
-59 130 -44 138 22 307 96 438 191 42 31 72 47 82 43 30 -14 221 -16 265 -4
80 22 125 91 125 192 0 27 5 48 10 48 6 0 19 15 30 33 15 24 20 50 20 105 0
68 -2 73 -26 84 -19 9 -24 17 -19 32 27 88 7 175 -44 195 -53 21 -157 43 -208
44 l-53 1 0 56 c-1 100 -33 158 -105 191 -46 21 -141 25 -180 7 -33 -15 -40
-44 -26 -121 14 -78 14 -248 1 -302 -6 -22 -14 -71 -20 -108 -8 -56 -20 -83
-70 -162 -68 -108 -128 -191 -178 -247 l-35 -38 -56 53 c-31 29 -82 73 -114
96 -56 43 -57 45 -50 80 4 20 8 58 8 84 l0 48 -162 61 c-90 33 -163 63 -163
67 1 3 18 18 39 32 56 39 81 98 81 190 -1 41 -7 92 -15 114 -8 22 -15 41 -15
41 0 1 21 9 48 19 189 70 340 211 414 386 31 75 58 195 58 261 0 31 8 49 35
81 133 155 134 389 3 557 l-36 45 33 65 c72 144 124 347 111 434 -6 39 -3 45
44 101 69 81 135 180 166 252 22 49 53 164 54 198 0 5 -23 -13 -51 -40 -31
-30 -49 -42 -44 -30 21 59 57 221 66 304 16 142 -13 316 -65 386 -13 18 -14
17 -21 -16 -20 -91 -24 -91 -61 5 -19 49 -50 114 -68 145 -19 31 -46 86 -60
123 -28 77 -63 140 -117 213 -47 64 -64 79 -119 103 -25 11 -51 27 -59 36 -18
22 -41 20 -41 -4z m17 -1587 c42 -47 118 -198 139 -278 18 -71 30 -309 16
-345 l-9 -24 -34 34 c-146 148 -270 215 -417 222 l-54 3 -24 -64 c-13 -35 -24
-67 -24 -72 0 -5 41 -9 91 -9 87 0 262 -31 209 -37 -197 -23 -327 -120 -393
-290 l-22 -58 -52 -3 c-41 -3 -53 -1 -53 11 0 8 -16 46 -35 85 -64 128 -194
222 -339 246 l-71 12 72 12 c40 7 117 12 173 12 117 0 113 -6 59 103 l-29 57
-66 0 c-92 0 -195 -25 -294 -72 -70 -34 -100 -55 -170 -127 -68 -69 -95 -106
-137 -187 -59 -113 -83 -193 -83 -270 l0 -52 -42 -5 c-24 -4 -88 -9 -142 -13
l-99 -7 6 66 c3 35 15 92 27 126 11 33 20 75 20 92 0 27 2 30 15 19 20 -16 21
-14 51 57 14 35 24 49 24 36 0 -52 49 -7 90 82 67 147 69 300 4 524 l-7 24
164 -6 c91 -3 257 -16 369 -28 413 -43 725 -3 945 120 39 22 74 40 79 40 5 1
24 -16 43 -36z m16 -719 c61 -21 141 -93 175 -158 35 -68 38 -186 5 -257 -30
-66 -86 -124 -151 -156 -76 -37 -181 -39 -258 -5 -56 25 -160 121 -114 106 40
-14 106 -8 142 12 19 11 43 39 56 64 55 106 -22 230 -142 230 -35 0 -55 -13
-36 -25 17 -10 11 -61 -9 -79 -26 -24 -75 -18 -79 10 -6 42 38 133 89 184 83
83 210 112 322 74z m-958 -23 c72 -34 136 -98 167 -166 35 -76 33 -200 -5
-277 -32 -64 -94 -125 -165 -159 -37 -18 -65 -23 -132 -23 -74 -1 -93 3 -142
27 -224 110 -253 422 -52 566 62 45 108 59 194 60 63 1 85 -4 135 -28z m379
-213 c-3 -13 -13 -35 -21 -50 -12 -24 -11 -32 2 -59 22 -41 16 -73 -14 -77
-23 -4 -24 -2 -17 40 9 54 9 53 0 116 l-7 52 32 0 c29 0 32 -2 25 -22z m82 -2
c3 -14 3 -30 -1 -35 -3 -6 -1 -11 4 -11 12 0 15 -60 5 -106 -5 -27 -8 -29 -46
-26 -36 4 -39 7 -35 28 2 13 1 24 -3 24 -4 0 -12 11 -18 25 -9 20 -7 33 11 74
19 43 26 51 49 51 21 0 29 -6 34 -24z m294 -121 c18 -21 8 -48 -20 -56 -24 -7
-24 -7 5 -8 l29 -1 -24 -17 c-29 -20 -105 -22 -140 -3 l-25 14 25 6 c17 4 21
8 12 13 -6 5 -17 18 -23 30 -11 19 -8 18 20 -6 41 -34 96 -38 88 -7 -5 19 15
50 32 50 5 0 14 -7 21 -15z m-1861 -67 c24 -12 85 -60 135 -109 l92 -88 145
19 c79 11 154 22 167 25 19 5 36 -7 90 -63 137 -140 311 -184 492 -125 119 38
243 155 286 269 22 60 27 64 86 64 l47 0 33 -62 c115 -216 371 -299 585 -190
23 12 45 22 48 22 10 0 5 -63 -11 -124 -48 -187 -181 -348 -359 -435 -176 -87
-295 -111 -577 -118 l-216 -6 -85 37 c-91 39 -162 47 -206 22 -21 -12 -33 -12
-75 1 -251 73 -411 205 -482 396 -22 59 -23 60 -23 26 -1 -42 -12 -49 -74 -49
-59 0 -123 35 -195 106 -86 86 -127 172 -119 255 6 70 37 126 81 145 36 16 73
11 135 -18z m-242 -2 c2 -2 1 -10 -2 -18 -5 -12 -27 -17 -93 -20 -52 -2 -100
-10 -119 -20 -23 -12 -33 -13 -33 -4 0 19 30 57 54 67 18 8 184 4 193 -5z
m693 -1 c-36 -7 -125 -19 -198 -25 -110 -10 -135 -10 -149 1 -14 12 5 16 138
25 85 6 181 11 214 11 l60 1 -65 -13z m1773 -99 c-21 -36 -142 -111 -166 -103
-7 2 8 13 33 24 25 11 65 36 90 56 51 41 54 42 43 23z m-973 -50 c0 -3 -25
-23 -56 -45 -56 -40 -144 -76 -167 -68 -6 2 13 11 43 20 30 9 82 35 115 57 62
41 65 43 65 36z m1468 -679 c33 -30 49 -64 57 -120 12 -77 1 -109 -50 -145
-43 -30 -45 -34 -45 -82 0 -43 -4 -55 -27 -75 l-28 -25 33 11 c28 10 35 9 46
-6 11 -15 11 -23 0 -44 -18 -33 -18 -66 0 -124 12 -40 12 -47 -3 -61 -11 -12
-16 -35 -16 -77 0 -52 3 -63 25 -80 46 -37 103 -59 155 -58 l50 1 -50 13
c-124 31 -155 57 -155 127 0 72 21 88 113 88 82 0 212 -37 235 -67 35 -47 -3
-131 -78 -173 -40 -22 -56 -25 -145 -24 -79 1 -116 7 -175 27 -63 22 -71 23
-52 7 12 -10 28 -21 35 -24 21 -9 -62 -72 -163 -124 -132 -69 -296 -118 -365
-110 -25 2 -35 12 -56 53 -28 56 -136 155 -250 230 l-70 46 32 44 c18 25 42
51 55 59 20 14 26 12 80 -20 72 -43 142 -96 211 -158 52 -47 52 -48 37 -74
-38 -64 138 132 200 223 38 55 81 116 96 135 15 19 29 53 33 75 3 22 13 72 21
110 18 83 21 244 5 350 -8 51 -8 80 -2 86 16 16 104 26 148 16 22 -4 51 -18
63 -30z m-3423 -185 c-6 -5 -46 -22 -90 -38 -71 -26 -76 -29 -48 -32 18 -2 82
11 143 28 l110 31 115 -17 c63 -10 112 -20 109 -23 -3 -3 -47 -20 -97 -37 -85
-28 -90 -32 -61 -38 23 -5 56 2 129 29 89 32 193 48 169 26 -5 -5 -45 -24 -88
-42 l-79 -33 323 -56 322 -55 44 -38 c28 -24 47 -51 53 -75 11 -40 28 -1212
18 -1212 -3 0 -108 23 -233 50 -125 28 -233 50 -241 50 -11 0 -13 -8 -8 -31 6
-27 2 -35 -39 -74 -68 -66 -141 -73 -170 -16 -17 31 -15 246 2 263 5 5 27 12
49 15 33 4 44 0 72 -23 19 -16 45 -51 58 -79 22 -45 24 -47 18 -15 -17 89 -69
145 -135 145 -36 0 -41 3 -51 32 -6 18 -24 47 -41 63 -25 25 -37 30 -79 30
-61 0 -89 -24 -89 -75 0 -32 -2 -35 -19 -25 -34 18 -88 12 -111 -12 -11 -12
-20 -27 -20 -32 -1 -36 -15 -36 -172 -1 -217 47 -240 59 -272 136 -22 53 -69
297 -142 740 -50 304 -63 404 -54 412 16 17 122 11 255 -12 l110 -19 90 33
c83 31 172 47 150 27z m3710 -69 l70 -18 13 -49 c17 -61 9 -112 -19 -119 -12
-3 -55 3 -96 14 -70 17 -80 18 -147 4 -39 -8 -78 -15 -87 -15 -21 0 -39 42
-39 90 0 32 6 43 33 64 79 60 126 65 272 29z m-1585 -125 c11 -18 54 -98 94
-178 158 -312 245 -585 262 -821 l7 -96 -32 -22 c-57 -41 -201 -102 -299 -128
-125 -33 -306 -37 -427 -9 -44 10 -83 21 -87 25 -4 3 90 49 210 102 l217 96 7
73 c4 41 7 75 5 76 -1 2 -90 14 -197 29 -407 53 -363 44 -356 74 3 14 14 69
25 121 11 52 26 136 32 185 9 64 19 97 33 114 l21 24 -31 -22 c-35 -25 -110
-109 -173 -193 -24 -32 -47 -56 -51 -53 -4 2 -10 23 -14 46 -8 49 -38 111 -77
159 -26 31 -29 42 -29 111 l0 76 130 51 c85 34 146 52 173 52 50 0 101 25 176
86 56 46 66 50 76 34 10 -17 228 -13 251 5 27 20 32 19 54 -17z m153 -58 c15
0 366 -136 375 -145 2 -2 -18 -15 -45 -28 -99 -51 -169 -136 -208 -252 -5 -15
-18 9 -54 96 -26 63 -78 174 -114 247 l-66 131 48 -25 c27 -13 56 -24 64 -24z
m1429 -23 c109 -30 128 -45 128 -106 0 -103 -41 -127 -158 -92 -53 16 -99 23
-149 22 -62 -2 -75 1 -94 20 -18 18 -21 30 -17 70 6 58 26 84 76 97 61 16 123
13 214 -11z m-2148 -419 c-16 -102 -54 -272 -64 -289 -6 -9 -31 -9 -119 1
l-111 14 0 92 0 91 62 -22 61 -22 85 108 c46 60 88 109 92 109 4 0 1 -37 -6
-82z m-234 1 c0 -4 -13 -17 -30 -29 l-30 -21 0 63 1 63 29 -35 c17 -19 30 -37
30 -41z m325 -360 c182 -22 337 -43 345 -46 13 -5 13 -6 0 -10 -8 -3 -176 -73
-372 -154 -196 -82 -360 -149 -363 -149 -3 0 -5 21 -3 46 l3 45 230 90 c127
49 237 92 245 95 21 9 -18 17 -262 50 l-208 27 0 29 c0 27 3 29 28 24 15 -3
176 -24 357 -47z m-315 -36 c10 -3 2 -11 -25 -23 -22 -10 -43 -19 -47 -19 -9
-1 -11 43 -3 51 6 5 49 0 75 -9z m119 -13 c25 -1 25 -1 7 -15 -23 -18 -14 -20
16 -4 14 8 43 7 106 -1 l86 -13 -68 -25 c-64 -24 -71 -24 -138 -12 -51 9 -67
15 -57 22 10 7 9 8 -6 3 -11 -4 -36 -8 -55 -7 -22 0 -26 -2 -12 -5 12 -2 20
-8 18 -12 -3 -4 8 -6 23 -3 16 2 55 -2 87 -8 l59 -12 -70 -25 c-39 -14 -88
-33 -110 -43 -82 -36 -85 -36 -85 5 0 31 3 35 23 32 12 -2 16 -2 9 0 -7 3 -10
9 -7 14 3 5 -1 6 -9 3 -12 -5 -16 1 -16 25 0 27 4 31 28 32 21 1 22 2 7 6 -31
8 72 53 109 48 16 -3 40 -5 55 -5z m-1134 -108 c17 -10 39 -35 50 -55 l19 -36
-22 -24 c-19 -20 -22 -34 -22 -105 0 -72 -2 -83 -20 -92 -26 -14 -58 -5 -92
28 -27 25 -28 28 -28 143 0 115 1 118 26 138 33 26 50 26 89 3z m-164 -88 c29
-14 31 -19 29 -67 -4 -88 -1 -104 25 -136 l26 -30 -23 -14 c-13 -8 -38 -18
-55 -22 -28 -6 -38 -2 -62 22 -54 55 -67 208 -21 245 27 22 42 22 81 2z m1439
-48 c0 -16 -7 -26 -21 -29 -17 -4 -19 -3 -10 6 6 6 11 19 11 29 0 10 5 18 10
18 6 0 10 -11 10 -24z m-1633 -26 c54 -11 62 -15 66 -39 8 -37 -6 -46 -50 -33
-52 16 -99 46 -113 73 -11 20 -10 21 11 16 13 -3 52 -11 86 -17z m1573 -20
c-8 -5 -19 -10 -25 -10 -5 0 -3 5 5 10 8 5 20 10 25 10 6 0 3 -5 -5 -10z
m-100 -25 c0 -14 -4 -25 -10 -25 -5 0 -10 11 -10 25 0 14 5 25 10 25 6 0 10
-11 10 -25z m-80 -49 c0 -2 -7 -7 -16 -10 -8 -3 -12 -2 -9 4 6 10 25 14 25 6z
m289 -803 l63 -6 -6 -44 c-3 -25 -9 -134 -13 -244 l-6 -199 -80 0 -80 0 6 93
c4 50 10 165 13 255 6 144 9 162 23 157 9 -3 44 -9 80 -12z"/>
<path d="M2325 5323 c18 -42 17 -71 -4 -92 -25 -25 -73 -28 -91 -6 -18 22 -30
2 -30 -48 0 -52 21 -97 62 -133 87 -76 221 -39 264 71 42 112 -39 225 -162
225 -40 0 -45 -2 -39 -17z m139 -199 c3 -9 1 -24 -4 -34 -7 -13 -6 -20 2 -22
8 -3 1 -12 -15 -22 -36 -24 -118 -24 -154 0 l-28 18 30 7 c17 4 25 7 20 8 -6
0 -16 11 -24 23 l-13 21 27 -21 c16 -13 42 -22 61 -22 29 0 34 3 34 25 0 40
50 55 64 19z"/>
<path d="M2929 5173 l-24 -28 28 24 c25 23 32 31 24 31 -2 0 -14 -12 -28 -27z"/>
<path d="M1283 4958 c-43 -21 -33 -34 26 -33 46 0 66 -5 99 -27 l41 -27 -22
-41 -22 -40 20 -37 c11 -20 26 -39 34 -41 11 -4 10 1 -2 19 -23 32 -22 82 3
104 18 17 20 16 50 -16 33 -37 38 -33 16 10 -21 39 -81 89 -140 117 -56 26
-70 28 -103 12z"/>
<path d="M2998 4734 c-12 -55 -47 -85 -124 -104 l-69 -18 58 -1 c61 -1 113 15
135 42 8 9 12 34 10 64 -3 44 -4 46 -10 17z"/>
<path d="M2327 4640 c-42 -13 -57 -29 -57 -60 0 -19 9 -36 26 -49 35 -27 49
-27 30 1 -9 12 -16 25 -16 28 0 16 101 -10 151 -38 108 -61 340 -92 493 -67
67 11 162 61 214 112 23 24 45 43 48 43 4 0 3 -12 0 -27 -5 -21 -4 -24 4 -13
27 40 -3 86 -45 69 -20 -7 -20 -8 0 -8 16 -1 12 -9 -24 -45 -77 -78 -185 -116
-329 -116 -148 1 -295 34 -374 86 -21 13 -50 24 -65 25 -16 0 -36 4 -46 8 -16
6 -17 9 -4 19 8 7 32 18 53 26 l39 15 -35 -1 c-19 0 -48 -4 -63 -8z"/>
<path d="M1065 3523 c5 -20 3 -23 -22 -23 -30 0 -73 -24 -73 -41 0 -5 13 0 29
12 22 16 38 20 61 16 29 -6 31 -5 25 16 -4 12 -12 27 -17 32 -7 7 -8 3 -3 -12z"/>
<path d="M1008 3423 c12 -17 22 -42 22 -56 0 -14 6 -27 14 -30 20 -8 56 -89
56 -128 0 -50 -39 -120 -80 -144 -19 -11 -57 -23 -85 -26 l-50 -6 53 -2 c62
-1 97 15 139 63 54 60 52 160 -2 225 -14 16 -28 43 -31 59 -3 17 -18 41 -32
54 l-26 23 22 -32z"/>
<path d="M2000 2860 c-8 -5 -10 -10 -5 -10 6 0 17 5 25 10 8 5 11 10 5 10 -5
0 -17 -5 -25 -10z"/>
<path d="M3013 1249 c-7 -9 -9 -20 -3 -29 12 -19 22 -7 18 21 -2 19 -5 20 -15
8z"/>
<path d="M2810 1226 c0 -14 5 -26 10 -26 6 0 10 9 10 19 0 11 -4 23 -10 26 -6
4 -10 -5 -10 -19z"/>
<path d="M2170 1217 c0 -20 -6 -27 -28 -32 -25 -5 -28 -10 -28 -40 1 -26 5
-35 18 -35 23 0 88 -58 88 -78 0 -31 -24 -81 -44 -91 -12 -6 -14 -10 -6 -8 8
2 21 -3 28 -12 11 -14 11 -14 6 1 -3 9 -2 24 4 33 7 14 16 9 55 -36 l46 -53
21 27 c30 38 80 37 110 0 14 -18 20 -36 17 -53 l-5 -25 24 28 c15 17 24 41 24
60 0 25 -3 29 -11 17 -8 -12 -10 -12 -8 5 1 11 1 25 0 31 -2 21 -85 46 -169
52 -68 4 -82 8 -80 20 4 23 63 35 145 30 l71 -5 7 59 c8 66 9 63 -22 72 -19 6
-23 3 -23 -13 0 -12 -4 -21 -9 -21 -5 0 -11 -8 -14 -18 -7 -31 -112 -43 -175
-21 -22 8 -33 19 -37 41 -4 17 -3 33 3 37 15 9 19 43 5 48 -8 3 -13 -5 -13
-20z"/>
<path d="M2380 1210 c0 -11 5 -20 10 -20 6 0 10 9 10 20 0 11 -4 20 -10 20 -5
0 -10 -9 -10 -20z"/>
<path d="M2770 1181 c-21 -6 -24 -12 -20 -36 12 -69 2 -143 -26 -206 -26 -58
-33 -107 -24 -164 2 -11 1 -32 -3 -46 -5 -19 -1 -34 12 -50 16 -20 30 -24 96
-27 l77 -4 -6 -30 c-7 -35 -33 -71 -66 -92 -17 -10 -20 -16 -9 -16 20 0 65 47
79 85 14 35 14 105 2 225 l-9 85 -2 -62 c0 -35 -5 -63 -11 -63 -37 0 -80 46
-80 86 0 41 90 85 103 52 3 -7 6 -2 6 12 3 53 68 156 88 137 3 -4 0 -25 -7
-47 -10 -29 -11 -73 -6 -170 4 -72 9 -137 12 -145 5 -11 23 -15 75 -15 37 0
132 -13 211 -29 238 -49 287 -54 446 -48 205 8 367 52 451 123 28 23 51 18 35
-8 -5 -7 -3 -8 5 -3 9 5 12 0 9 -16 -7 -52 -165 -116 -348 -140 -107 -15 -385
-6 -499 15 -104 19 -118 14 -22 -8 319 -73 809 -7 878 118 11 19 -3 76 -19 76
-4 0 -8 16 -8 35 0 32 2 35 30 35 26 0 30 3 30 29 0 46 16 52 141 49 l114 -3
3 -32 c3 -27 -1 -33 -22 -39 -13 -3 -33 -3 -43 0 -25 8 -40 -4 -44 -34 -4 -22
-10 -26 -59 -31 l-55 -6 60 1 c58 1 60 2 63 29 3 25 7 27 47 27 66 0 91 33 59
78 -14 21 -23 22 -130 22 -101 0 -116 -2 -134 -20 -11 -11 -20 -29 -20 -40 0
-35 -43 -25 -64 15 -44 81 -166 161 -288 190 -86 20 -199 18 -283 -6 -53 -15
-106 -20 -220 -21 -84 -1 -115 -3 -72 -5 l78 -4 -51 -56 c-28 -30 -57 -68 -66
-84 -12 -25 -21 -29 -54 -29 -39 0 -90 17 -90 30 0 4 -21 10 -46 13 -89 10
-96 58 -19 135 l44 44 -11 44 c-7 24 -18 46 -26 49 -16 6 -42 -18 -42 -39 0
-18 -37 -29 -100 -30 -64 -1 -101 11 -94 29 4 8 1 15 -5 15 -6 0 -11 7 -11 15
0 16 -2 17 -40 6z m1107 -122 c73 -15 150 -56 204 -106 54 -50 73 -79 83 -129
14 -65 -83 -132 -249 -170 -113 -27 -418 -27 -486 -1 -132 51 -146 195 -29
301 115 104 296 144 477 105z m-1036 -354 c39 -6 49 -11 47 -24 -2 -12 -17
-17 -63 -19 -72 -3 -110 13 -111 48 -1 38 3 39 41 20 20 -10 58 -21 86 -25z"/>
<path d="M1968 1113 c12 -2 30 -2 40 0 9 3 -1 5 -23 4 -22 0 -30 -2 -17 -4z"/>
<path d="M1883 1085 c-36 -22 -112 -117 -125 -157 -4 -10 -40 -13 -139 -14
-111 -1 -144 -5 -193 -23 -157 -57 -269 -178 -282 -304 -3 -29 -12 -66 -20
-84 -34 -76 -9 -108 115 -147 166 -52 342 -58 506 -16 83 21 235 89 318 142
40 26 50 29 58 17 13 -20 11 124 -2 214 l-11 74 -36 -19 c-50 -25 -69 -23 -86
10 -8 16 -32 44 -54 63 -99 86 -102 88 -133 82 -36 -7 -36 2 0 58 33 51 73 90
116 112 17 9 26 16 20 17 -5 0 -29 -11 -52 -25z m-194 -196 c105 -24 216 -102
256 -179 27 -53 30 -139 6 -176 -94 -150 -700 -151 -777 -2 -44 84 62 251 202
319 94 45 218 60 313 38z m431 -317 c0 -37 -1 -38 -105 -96 -207 -115 -297
-141 -485 -140 -154 1 -256 20 -340 62 -40 20 -56 33 -58 51 -2 15 0 21 7 17
7 -4 11 1 11 13 0 27 6 26 42 -4 16 -13 58 -33 93 -44 253 -78 619 -30 680 90
11 21 35 39 78 60 34 16 65 29 70 29 4 0 7 -17 7 -38z"/>
<path d="M2076 1101 c-12 -5 -15 -10 -9 -14 6 -4 16 0 23 8 14 17 13 17 -14 6z"/>
<path d="M3129 1081 c13 -12 28 -21 34 -21 12 0 11 0 -28 24 l-30 17 24 -20z"/>
<path d="M2062 1058 c-7 -7 -12 -18 -12 -25 0 -7 -9 -13 -20 -13 -32 0 -89
-27 -126 -60 l-35 -30 28 0 c18 0 24 3 15 8 -10 7 -8 12 6 25 22 20 85 47 111
47 12 0 26 12 35 30 16 33 16 36 -2 18z"/>
<path d="M3188 1053 c7 -3 16 -2 19 1 4 3 -2 6 -13 5 -11 0 -14 -3 -6 -6z"/>
<path d="M3156 980 c-20 -22 -36 -43 -36 -47 0 -4 3 -3 8 3 4 5 23 26 41 47
19 20 32 37 29 37 -3 0 -22 -18 -42 -40z"/>
<path d="M2080 1002 c0 -4 10 -9 22 -9 18 -2 20 0 8 7 -18 12 -30 13 -30 2z"/>
<path d="M2060 971 c0 -5 5 -13 10 -16 6 -3 10 -15 10 -27 0 -15 -4 -18 -17
-14 -15 6 -16 5 -1 -11 9 -10 18 -27 21 -38 2 -11 5 4 6 33 1 35 -4 58 -14 68
-8 9 -15 11 -15 5z"/>
<path d="M1985 950 c-16 -7 -17 -9 -3 -9 9 -1 20 4 23 9 7 11 7 11 -20 0z"/>
<path d="M2562 900 c0 -14 2 -19 5 -12 2 6 2 18 0 25 -3 6 -5 1 -5 -13z"/>
<path d="M2165 810 c2 -52 9 -118 15 -145 l12 -51 91 8 c101 9 159 22 192 44
21 13 23 13 28 -7 14 -52 -17 -65 -175 -73 -84 -4 -118 -2 -118 6 0 6 -2 9 -5
7 -2 -3 0 -18 4 -35 5 -16 10 -21 10 -11 1 19 6 19 161 21 121 1 140 15 140
99 1 96 4 119 24 155 9 19 15 36 13 39 -3 2 -8 -5 -12 -17 -9 -30 -63 -88 -96
-106 -36 -18 -102 -18 -137 0 -17 9 -37 35 -52 65 -23 50 -24 51 -46 36 -35
-22 -42 -19 -47 23 -3 20 -4 -6 -2 -58z"/>
<path d="M2091 814 c0 -11 3 -14 6 -6 3 7 2 16 -1 19 -3 4 -6 -2 -5 -13z"/>
<path d="M2978 610 c-9 -96 -69 -153 -188 -180 -78 -18 -196 -74 -241 -115
-45 -40 -55 -43 -62 -15 -3 11 -21 29 -42 41 l-36 22 23 24 c34 36 140 83 237
104 63 14 72 18 33 14 -123 -13 -283 -91 -311 -151 -12 -27 -1 -58 13 -35 11
18 34 13 46 -10 9 -15 8 -24 -1 -35 -9 -12 -6 -14 23 -14 26 0 49 11 94 48 68
54 126 82 232 110 123 33 192 101 192 190 0 30 4 42 18 45 13 4 13 5 -4 6 -19
1 -22 -6 -26 -49z"/>
<path d="M3140 626 c63 -14 116 -24 118 -22 5 6 -121 35 -178 41 -32 3 -7 -5
60 -19z"/>
<path d="M2223 491 l2 -43 -40 -4 c-71 -5 -79 -10 -51 -33 10 -9 15 -8 20 4 6
18 37 20 54 3 20 -20 36 33 24 79 l-10 38 1 -44z"/>
<path d="M2175 270 c-3 -5 3 -10 14 -10 11 0 23 5 26 10 3 6 -3 10 -14 10 -11
0 -23 -4 -26 -10z"/>
<path d="M2290 211 c0 -9 33 -41 43 -41 4 0 2 9 -5 20 -13 21 -38 35 -38 21z"/>
</g>
</svg>
